<?xml version="1.0" standalone="no"?><!DOCTYPE svg PUBLIC "-//W3C//DTD SVG 1.1//EN" "http://www.w3.org/Graphics/SVG/1.1/DTD/svg11.dtd"><svg t="1608399396427" class="icon" viewBox="0 0 1024 1024" version="1.1" xmlns="http://www.w3.org/2000/svg" p-id="53262" width="16" height="16" xmlns:xlink="http://www.w3.org/1999/xlink"><defs><style type="text/css"></style></defs><path d="M1016.039 829.403c2.090-6.132 3.478-12.579 3.478-19.383v-563.75c0-6.461-1.293-12.579-3.184-18.434l-331.203 283.58 330.909 317.988z" fill="#1aaba8" p-id="53263"></path><path d="M511.818 579.803l131.383-106.894 332.599-284.693c-5.463-1.622-11.127-2.763-17.093-2.763h-893.731c-5.981 0-11.658 1.14-17.129 2.777l332.794 284.845 131.177 106.73z" fill="#1aaba8" p-id="53264"></path><path d="M958.708 870.833c5.717 0 11.156-1.058 16.414-2.557l-334.141-320.957-129.164 105.107-128.957-104.943-334.277 320.806c5.251 1.484 10.682 2.542 16.394 2.542h893.731z" fill="#1aaba8" p-id="53265"></path><path d="M7.351 227.835c-1.891 5.856-3.184 11.974-3.184 18.434v563.749c0 6.817 1.389 13.265 3.478 19.383l331.061-317.851-331.356-283.716z" fill="#1aaba8" p-id="53266"></path></svg>