<?xml version="1.0" standalone="no"?><!DOCTYPE svg PUBLIC "-//W3C//DTD SVG 1.1//EN" "http://www.w3.org/Graphics/SVG/1.1/DTD/svg11.dtd"><svg t="1608399102576" class="icon" viewBox="0 0 1024 1024" version="1.1" xmlns="http://www.w3.org/2000/svg" p-id="45532" width="16" height="16" xmlns:xlink="http://www.w3.org/1999/xlink"><defs><style type="text/css"></style></defs><path d="M504.827318 933.046405c0 49.41181-72.324545 89.558907-161.58459 89.558907s-161.58459-40.047475-161.58459-89.558907c0-49.41181 72.324545-89.558907 161.58459-89.558906s161.58459 40.147096 161.58459 89.558906z m174.336025-89.558906c-89.260045 0-161.58459 40.047475-161.58459 89.558906 0 49.41181 72.324545 89.558907 161.58459 89.558907S840.747933 982.557836 840.747933 933.046405c0-49.41181-72.324545-89.558907-161.58459-89.558906z m0 0" fill="#FFC817" p-id="45533"></path><path d="M868.442455 503.582061s-12.253332-12.552194-25.303628-24.108182V336.319097c0-183.102636-148.434673-331.537309-331.537309-331.537309s-331.537309 148.434673-331.537309 331.537309v143.154782c-13.149917 11.555988-25.303629 24.108182-25.303629 24.108182-21.717288 32.37669-73.021889 116.257223-73.021889 195.355968 0 79.098745 21.617667 92.547524 29.786555 93.244868 7.571165 0.597724 35.365308-6.87382 68.538963-57.580698 44.829264 149.032396 176.228816 257.021111 331.238447 257.021111 155.308493 0 286.907287-108.287577 331.537309-257.718455 33.273276 51.304602 61.366281 58.875766 68.937445 58.278042 8.069267-0.697344 29.686935-14.146123 29.686935-93.244868 0-79.098745-51.404222-162.979278-73.02189-195.355968z m0 0" fill="#37474F" p-id="45534"></path><path d="M267.630703 560.365794c-2.689756 19.226773-3.984823 38.652787-3.984823 58.078802 0 181.010604 112.770503 327.851347 251.940461 327.851347 139.070338 0 251.940461-146.741123 251.940461-327.851347 0-19.426014-1.295068-38.852028-3.984823-58.078802H267.630703zM424.333885 156.802802c-36.959237 0-66.945034 40.645199-66.945034 90.754353s29.985796 90.754354 66.945034 90.754354 66.945034-40.645199 66.945033-90.754354-29.985796-90.754354-66.945033-90.754353zM435.49139 284.914875c-13.448779 0-24.307423-16.636638-24.307423-37.158478 0-20.521841 10.858644-37.158478 24.307423-37.158479s24.307423 16.636638 24.307423 37.158479c0.099621 20.521841-10.858644 37.158478-24.307423 37.158478z m165.270552-128.112073c-36.959237 0-66.945034 40.645199-66.945034 90.754353s29.985796 90.754354 66.945034 90.754354 66.945034-40.645199 66.945033-90.754354-29.985796-90.754354-66.945033-90.754353z m11.356747 94.141453c-0.099621 0-0.099621 0 0 0 0 1.095826-0.796965 1.892791-1.892792 1.892791-0.796965 0-1.394688-0.597724-1.693549-1.394688h-0.099621v0.199241c-4.283685-10.559782-11.85485-17.732464-20.521841-17.732464-8.766612 0-16.238155 7.172682-20.52184 17.732464h-0.199242c-0.298862 0.597724-0.796965 1.095826-1.593929 1.095827-0.498103 0-0.996206-0.199241-1.295068-0.597724-0.398482-0.398482-0.498103-0.796965-0.498102-1.295067-0.099621-0.996206-0.199241-1.992412-0.199242-3.088238 0-20.521841 10.858644-37.158478 24.307423-37.158479 13.448779 0 24.307423 16.636638 24.307423 37.158479 0.099621 1.095826-0.099621 2.092032-0.09962 3.187858z m0 0" fill="#FFFFFF" p-id="45535"></path><path d="M249.200895 542.035607c-6.076856 30.384279-18.927911 166.964102-12.851056 197.34838s31.679346 25.303629 68.240102 25.702111c35.464928 0.298862 77.006713 10.1613 77.704056-34.468723 0.697344-44.630022 0.697344-132.495379 10.858644-164.872069 10.1613-32.476311-143.951746-23.709699-143.951746-23.709699z m0 0" fill="#FF3B30" p-id="45536"></path><path d="M241.032007 607.28709l142.756299 46.124331c1.195447-35.066446 3.785582-69.73441 9.364335-87.666115 10.1613-32.476311-143.951746-23.610079-143.951746-23.610079-2.291273 11.057885-5.379512 36.162273-8.168888 65.151863z m0 0" fill="#DD2C00" p-id="45537"></path><path d="M512.199241 464.33155c111.276194 0 201.432824-40.545578 201.432824-65.550346 0-18.927911-90.15663-38.553167-201.432824-38.553166S310.766417 377.761261 310.766417 398.781204c0.099621 23.709699 90.256251 65.550345 201.432824 65.550346z m0 0" fill="#FFC817" p-id="45538"></path><path d="M514.291273 488.638973s127.713591 1.394688 229.824692-41.940267c102.01148-43.235334 101.015274-48.116743 112.172779-48.116743 11.157506 0 24.307423 16.038914 29.886176 45.028505 5.578753 28.98959 12.153711 51.802705-11.655609 65.948828-23.80932 14.245744-179.914778 105.996303-355.844732 105.996303h-8.766611c-175.929954 0-332.035412-91.750559-355.844732-105.896683-23.80932-14.146123-17.234361-36.959237-11.655609-65.948827 5.578753-28.98959 18.72867-45.028505 29.886176-45.028505s10.1613 4.881409 112.172779 48.116743c102.01148 43.235334 229.824691 41.840646 229.824691 41.840646z m0 0" fill="#FF3B30" p-id="45539"></path></svg>