<?xml version="1.0" standalone="no"?><!DOCTYPE svg PUBLIC "-//W3C//DTD SVG 1.1//EN" "http://www.w3.org/Graphics/SVG/1.1/DTD/svg11.dtd"><svg t="1608627339189" class="icon" viewBox="0 0 1024 1024" version="1.1" xmlns="http://www.w3.org/2000/svg" p-id="4613" width="16" height="16" xmlns:xlink="http://www.w3.org/1999/xlink"><defs><style type="text/css"></style></defs><path d="M512 512m-482.133333 0a482.133333 482.133333 0 1 0 964.266666 0 482.133333 482.133333 0 1 0-964.266666 0Z" fill="#E71F19" p-id="4614"></path><path d="M512 1024a512 512 0 1 1 512-512 512 512 0 0 1-512 512zM512 59.733333A452.266667 452.266667 0 1 0 964.266667 512 453.12 453.12 0 0 0 512 59.733333z" fill="#FEEC36" p-id="4615"></path><path d="M446.293333 768L256 341.333333h116.053333l134.826667 316.586667L636.586667 341.333333H768l-26.453333 21.333334L560.64 768H446.293333z" fill="#FEEC36" p-id="4616"></path></svg>