<?xml version="1.0" standalone="no"?><!DOCTYPE svg PUBLIC "-//W3C//DTD SVG 1.1//EN" "http://www.w3.org/Graphics/SVG/1.1/DTD/svg11.dtd"><svg t="1608538891659" class="icon" viewBox="0 0 1024 1024" version="1.1" xmlns="http://www.w3.org/2000/svg" p-id="10040" width="16" height="16" xmlns:xlink="http://www.w3.org/1999/xlink"><defs><style type="text/css"></style></defs><path d="M621.588 950.927H172.406c-54.79-0.01-99.195-44.426-99.185-99.215V172.667c-0.04-54.794 44.35-99.246 99.144-99.287h678.989c54.753-0.026 99.164 44.344 99.184 99.103v0.143l-1.5 449.1v0.113a36.598 36.598 0 1 0 73.196 0.113l1.515-449.142v-0.112C1023.805 77.558 946.724 0.389 851.584 0.333H172.406C77.353 0.256 0.24 77.256 0.169 172.308v679.353c-0.128 95.053 76.826 172.211 171.878 172.334h449.547a36.531 36.531 0 1 0 0-73.052l-0.006-0.016z" fill="#0090DF" p-id="10041"></path><path d="M1013.135 961.638L873.661 822.164c70.303-98.83 47.176-235.944-51.655-306.247S586.06 468.74 515.758 567.572s-47.176 235.945 51.656 306.248c76.206 54.21 178.386 54.21 254.592 0l139.474 139.474a36.531 36.531 0 0 0 51.655-51.656z m-318.254-120.31c-80.783-0.004-146.268-65.494-146.263-146.283 0.005-80.783 65.495-146.268 146.284-146.263 80.783 0.005 146.268 65.495 146.263 146.284A146.258 146.258 0 0 1 694.88 841.329z m109.701-511.636a36.639 36.639 0 0 0 0-73.277l-584.975-0.19a36.634 36.634 0 0 0 0 73.252l584.99 0.215h-0.015zM438.973 548.86a36.531 36.531 0 1 0 0-73.052H219.607a36.49 36.49 0 0 0 0 72.98h219.366v0.072zM219.617 694.943a36.516 36.516 0 1 0 0 73.031H365.86a36.49 36.49 0 0 0 0-72.98H219.617v-0.051z" fill="#0090DF" p-id="10042"></path></svg>