<?xml version="1.0" standalone="no"?><!DOCTYPE svg PUBLIC "-//W3C//DTD SVG 1.1//EN" "http://www.w3.org/Graphics/SVG/1.1/DTD/svg11.dtd"><svg t="1608566967744" class="icon" viewBox="0 0 1170 1024" version="1.1" xmlns="http://www.w3.org/2000/svg" p-id="4744" width="18.28125" height="16" xmlns:xlink="http://www.w3.org/1999/xlink"><defs><style type="text/css"></style></defs><path d="M715.629714 650.605714c-139.410286-7.753143-272.603429 14.189714-400.091428 68.900572-128.292571 55.149714-232.740571 140.288-315.465143 253.44 1.609143-9.874286 3.145143-19.821714 4.973714-29.696 1.755429-9.874286 3.584-19.821714 5.778286-29.696 26.843429-121.417143 70.070857-236.470857 137.508571-341.577143 69.046857-107.812571 157.842286-194.194286 274.651429-249.563429a646.363429 646.363429 0 0 1 238.445714-59.977143c17.627429-1.170286 35.328-1.755429 53.686857-2.56V2.925714L718.262857 0.512l451.291429 454.948571-453.997715 453.339429v-258.194286z" fill="#27973A" p-id="4745"></path></svg>